<svg width="26" height="24" viewBox="0 0 26 24" fill="none" xmlns="http://www.w3.org/2000/svg">
<path d="M11.0979 1.8541C11.6966 0.0114784 14.3034 0.0114799 14.9021 1.8541L16.3677 6.36475C16.6355 7.18879 17.4034 7.74671 18.2698 7.74671L23.0126 7.74671C24.95 7.74671 25.7556 10.2259 24.1882 11.3647L20.3512 14.1525C19.6502 14.6618 19.3569 15.5645 19.6246 16.3885L21.0902 20.8992C21.6889 22.7418 19.58 24.2741 18.0126 23.1353L14.1756 20.3475C13.4746 19.8382 12.5254 19.8382 11.8244 20.3475L7.98744 23.1353C6.42002 24.2741 4.31106 22.7418 4.90976 20.8992L6.37536 16.3885C6.64311 15.5645 6.34979 14.6618 5.64882 14.1525L1.81183 11.3647C0.244407 10.2259 1.04996 7.74671 2.9874 7.74671L7.73018 7.74671C8.59663 7.74671 9.36454 7.18879 9.63229 6.36475L11.0979 1.8541Z" fill="#0F2851"/>
</svg>
